<?xml version="1.0" encoding="utf-8"?>
<!-- Generator: Adobe Illustrator 25.3.1, SVG Export Plug-In . SVG Version: 6.00 Build 0)  -->
<svg version="1.1" id="Слой_1" xmlns="http://www.w3.org/2000/svg" xmlns:xlink="http://www.w3.org/1999/xlink" x="0px" y="0px"
	 viewBox="0 0 512 512" style="enable-background:new 0 0 512 512;" xml:space="preserve">
<style type="text/css">
	.st0{fill:#76C100;}
	.st1{fill:#FFFFFF;}
</style>
<g id="Слой_2_1_">
	<rect x="2" y="1" class="st0" width="511" height="511"/>
</g>
<g id="Слой_1_1_" xmlns:svgjs="http://svgjs.com/svgjs">
	<g>
		<g>
			<path class="st1" d="M256,256.71c-42.35,0-76.81-34.46-76.81-76.81s34.46-76.81,76.81-76.81s76.81,34.46,76.81,76.81
				S298.35,256.71,256,256.71z M256,128.68c-28.24,0-51.21,22.97-51.21,51.21S227.76,231.1,256,231.1s51.21-22.97,51.21-51.21
				S284.24,128.68,256,128.68z"/>
			<path class="st1" d="M380.18,416c-1.03,0-2.08-0.13-3.13-0.38c-6.86-1.72-11.02-8.67-9.3-15.53c2.3-9.16,3.46-18.64,3.46-28.16
				c0-62.64-50.93-114.32-113.53-115.21l-1.69-0.01l-1.69,0.01c-62.6,0.9-113.53,52.58-113.53,115.21c0,9.52,1.17,19,3.46,28.15
				c1.72,6.86-2.44,13.81-9.3,15.53c-6.86,1.72-13.81-2.44-15.53-9.3c-2.82-11.19-4.24-22.76-4.24-34.38
				c0-37.27,14.42-72.4,40.59-98.92c26.15-26.49,61.04-41.38,98.23-41.9c0.06,0,0.12,0,0.18,0l1.82-0.01l1.82,0.01
				c0.06,0,0.12,0,0.18,0c37.2,0.52,72.08,15.39,98.23,41.9c26.18,26.52,40.6,61.65,40.6,98.92c0,11.63-1.42,23.2-4.23,34.39
				C391.14,412.13,385.92,416,380.18,416z"/>
		</g>
	</g>
</g>
</svg>
