<?xml version="1.0" encoding="utf-8"?>
<!-- Generator: Adobe Illustrator 24.3.0, SVG Export Plug-In . SVG Version: 6.00 Build 0)  -->
<svg version="1.1" id="Слой_1" xmlns="http://www.w3.org/2000/svg" xmlns:xlink="http://www.w3.org/1999/xlink" x="0px" y="0px"
	 viewBox="0 0 25 20" style="enable-background:new 0 0 25 20;" xml:space="preserve">
<style type="text/css">
	.st0{fill:#5B89B1;}
</style>
<g id="Bag_2_">
	<path class="st0" d="M6.45,16.92c0.86,0,1.55,0.69,1.55,1.54C8,19.31,7.31,20,6.45,20S4.9,19.31,4.9,18.46
		C4.91,17.61,5.6,16.92,6.45,16.92z"/>
	<path class="st0" d="M14.98,16.92c0.86,0,1.55,0.69,1.55,1.54c0,0.85-0.69,1.54-1.55,1.54c-0.86,0-1.55-0.69-1.55-1.54
		C13.43,17.61,14.12,16.92,14.98,16.92z"/>
	<path class="st0" d="M0.11,5.34l1.74,5.78c0.34,1.13,1.37,1.89,2.55,1.89h12.65L16.85,14c-0.08,0.38-0.42,0.65-0.81,0.65H4.9
		c-0.4,0-0.73,0.32-0.73,0.72c0,0.4,0.33,0.72,0.73,0.72h11.14l0,0c1.07,0,2.01-0.76,2.23-1.8l2.58-12.2
		c0.08-0.38,0.42-0.65,0.81-0.65h2.62c0.4,0,0.73-0.32,0.73-0.72C25,0.32,24.67,0,24.27,0h-2.62c-1.07,0-2.01,0.76-2.23,1.8
		L19.4,1.93H2.67C1.82,1.93,1.04,2.32,0.53,3C0.02,3.67-0.13,4.53,0.11,5.34z M1.69,3.86c0.23-0.31,0.58-0.49,0.97-0.49H19.1
		l-1.74,8.21c-0.02,0-0.04-0.01-0.06-0.01H4.41c-0.54,0-1.01-0.35-1.16-0.86L1.51,4.92C1.39,4.56,1.46,4.17,1.69,3.86z"/>
</g>
</svg>
