<?xml version="1.0" encoding="utf-8"?>
<!-- Generator: Adobe Illustrator 24.3.0, SVG Export Plug-In . SVG Version: 6.00 Build 0)  -->
<svg version="1.1" id="Слой_1" xmlns="http://www.w3.org/2000/svg" xmlns:xlink="http://www.w3.org/1999/xlink" x="0px" y="0px"
	 viewBox="0 0 20 20" style="enable-background:new 0 0 20 20;" xml:space="preserve">
<style type="text/css">
	.st0{fill:#FFFFFF;}
</style>
<path id="Search_3_" class="st0" d="M19.71,18.35l-4.64-4.64c1.18-1.49,1.83-3.35,1.83-5.25C16.9,3.79,13.11,0,8.45,0
	C3.79,0,0,3.79,0,8.45c0,4.66,3.79,8.45,8.45,8.45c1.91,0,3.76-0.65,5.25-1.83l4.64,4.64C18.53,19.9,18.77,20,19.03,20
	c0.26,0,0.5-0.1,0.68-0.28C19.9,19.53,20,19.29,20,19.03C20,18.77,19.9,18.53,19.71,18.35z M14.96,8.45c0,3.59-2.92,6.5-6.51,6.5
	s-6.51-2.92-6.51-6.5c0-3.59,2.92-6.51,6.51-6.51S14.96,4.86,14.96,8.45z"/>
</svg>
