<?xml version="1.0" encoding="utf-8"?>
<!-- Generator: Adobe Illustrator 24.3.0, SVG Export Plug-In . SVG Version: 6.00 Build 0)  -->
<svg version="1.1" id="Слой_1" xmlns="http://www.w3.org/2000/svg" xmlns:xlink="http://www.w3.org/1999/xlink" x="0px" y="0px"
	 viewBox="0 0 12.5 10" style="enable-background:new 0 0 12.5 10;" xml:space="preserve">
<style type="text/css">
	.st0{fill:#FFFFFF;}
</style>
<g id="Icons_1_">
	<g id="End">
		<g>
			<path class="st0" d="M499.29,4.25c0,3.54-2.21,5.67-5.87,5.75V8.04c2.67-0.04,3.5-1.92,3.5-3.33c0-0.21,0-0.38-0.04-0.54
				c-0.33,0.33-0.92,0.5-1.42,0.5c-1.25,0-2.21-0.75-2.21-2.25c0-1.37,1-2.42,2.75-2.42C498.04,0,499.29,1.96,499.29,4.25z
				 M506.5,4.25c0,3.54-2.21,5.67-5.88,5.75V8.04c2.67-0.04,3.5-1.92,3.5-3.33c0-0.21,0-0.38-0.04-0.54
				c-0.33,0.33-0.92,0.5-1.42,0.5c-1.25,0-2.21-0.75-2.21-2.25c0-1.37,1-2.42,2.75-2.42C505.25,0,506.5,1.96,506.5,4.25z"/>
		</g>
	</g>
	<g id="Start">
		<g>
			<path class="st0" d="M3.29,0c1.75,0,2.75,1.04,2.75,2.42c0,1.5-0.96,2.25-2.21,2.25c-0.5,0-1.08-0.17-1.42-0.5
				C2.38,4.33,2.38,4.5,2.38,4.71c0,1.42,0.83,3.29,3.5,3.33V10C2.21,9.92,0,7.79,0,4.25C0,1.96,1.25,0,3.29,0z M10.5,0
				c1.75,0,2.75,1.04,2.75,2.42c0,1.5-0.96,2.25-2.21,2.25c-0.5,0-1.08-0.17-1.42-0.5C9.58,4.33,9.58,4.5,9.58,4.71
				c0,1.42,0.83,3.29,3.5,3.33V10C9.42,9.92,7.21,7.79,7.21,4.25C7.21,1.96,8.46,0,10.5,0z"/>
		</g>
	</g>
</g>
</svg>
