<?xml version="1.0" encoding="utf-8"?>
<!-- Generator: Adobe Illustrator 24.3.0, SVG Export Plug-In . SVG Version: 6.00 Build 0)  -->
<svg version="1.1" id="Слой_1" xmlns="http://www.w3.org/2000/svg" xmlns:xlink="http://www.w3.org/1999/xlink" x="0px" y="0px"
	 viewBox="0 0 14.5 10" style="enable-background:new 0 0 14.5 10;" xml:space="preserve">
<style type="text/css">
	.st0{fill:#FFFFFF;}
</style>
<g id="Icons_1_">
	<g id="End">
		<g>
			<path class="st0" d="M7.29,4.25c0,3.54-2.21,5.67-5.87,5.75V8.04C4.08,8,4.92,6.12,4.92,4.71c0-0.21,0-0.38-0.04-0.54
				c-0.33,0.33-0.92,0.5-1.42,0.5c-1.25,0-2.21-0.75-2.21-2.25C1.25,1.04,2.25,0,4,0C6.04,0,7.29,1.96,7.29,4.25z M14.5,4.25
				c0,3.54-2.21,5.67-5.88,5.75V8.04c2.67-0.04,3.5-1.92,3.5-3.33c0-0.21,0-0.38-0.04-0.54c-0.33,0.33-0.92,0.5-1.42,0.5
				c-1.25,0-2.21-0.75-2.21-2.25c0-1.37,1-2.42,2.75-2.42C13.25,0,14.5,1.96,14.5,4.25z"/>
		</g>
	</g>
	<g id="Start">
		<g>
			<path class="st0" d="M-488.71,0c1.75,0,2.75,1.04,2.75,2.42c0,1.5-0.96,2.25-2.21,2.25c-0.5,0-1.08-0.17-1.42-0.5
				c-0.04,0.17-0.04,0.33-0.04,0.54c0,1.42,0.83,3.29,3.5,3.33V10c-3.67-0.08-5.88-2.21-5.88-5.75C-492,1.96-490.75,0-488.71,0z
				 M-481.5,0c1.75,0,2.75,1.04,2.75,2.42c0,1.5-0.96,2.25-2.21,2.25c-0.5,0-1.08-0.17-1.42-0.5c-0.04,0.17-0.04,0.33-0.04,0.54
				c0,1.42,0.83,3.29,3.5,3.33V10c-3.67-0.08-5.88-2.21-5.88-5.75C-484.79,1.96-483.54,0-481.5,0z"/>
		</g>
	</g>
</g>
</svg>
