<?xml version="1.0" encoding="utf-8"?>
<!-- Generator: Adobe Illustrator 24.3.0, SVG Export Plug-In . SVG Version: 6.00 Build 0)  -->
<svg version="1.1" id="Слой_1" xmlns="http://www.w3.org/2000/svg" xmlns:xlink="http://www.w3.org/1999/xlink" x="0px" y="0px"
	 viewBox="0 0 20.87 20" style="enable-background:new 0 0 20.87 20;" xml:space="preserve">
<style type="text/css">
	.st0{fill:#686868;}
</style>
<path class="st0" d="M4.67,20c-0.23,0-0.46-0.07-0.65-0.21c-0.36-0.26-0.53-0.71-0.43-1.15l1.34-5.91L0.38,8.74
	C0.04,8.44-0.08,7.98,0.05,7.56C0.19,7.14,0.57,6.84,1.01,6.8l6.02-0.55l2.38-5.57C9.59,0.26,9.99,0,10.43,0s0.84,0.26,1.02,0.67
	l2.38,5.58l6.02,0.55c0.44,0.04,0.82,0.34,0.95,0.76c0.14,0.42,0.01,0.89-0.32,1.18l-4.55,3.99l1.34,5.91
	c0.1,0.43-0.07,0.88-0.43,1.15c-0.36,0.26-0.84,0.28-1.22,0.05l-5.19-3.1l-5.19,3.11C5.06,19.95,4.87,20,4.67,20z"/>
</svg>
