<?xml version="1.0" encoding="utf-8"?>
<!-- Generator: Adobe Illustrator 25.3.1, SVG Export Plug-In . SVG Version: 6.00 Build 0)  -->
<svg version="1.1" id="Слой_1" xmlns="http://www.w3.org/2000/svg" xmlns:xlink="http://www.w3.org/1999/xlink" x="0px" y="0px"
	 viewBox="0 0 15.65 15" style="enable-background:new 0 0 15.65 15;" xml:space="preserve">
<style type="text/css">
	.st0{fill:#76C100;}
</style>
<path class="st0" d="M3.5,15c-0.17,0-0.34-0.05-0.49-0.16c-0.27-0.2-0.4-0.53-0.32-0.86L3.7,9.55l-3.42-3
	C0.03,6.33-0.06,5.99,0.04,5.67c0.1-0.32,0.38-0.54,0.72-0.57l4.52-0.41l1.79-4.18C7.19,0.2,7.49,0,7.83,0S8.46,0.2,8.6,0.5
	l1.79,4.18L14.9,5.1c0.33,0.03,0.61,0.26,0.72,0.57c0.1,0.32,0.01,0.66-0.24,0.88l-3.41,2.99l1.01,4.44
	c0.07,0.33-0.05,0.66-0.32,0.86c-0.27,0.2-0.63,0.21-0.91,0.04l-3.9-2.33l-3.9,2.33C3.8,14.96,3.65,15,3.5,15z"/>
</svg>
