<?xml version="1.0" encoding="utf-8"?>
<!-- Generator: Adobe Illustrator 21.1.0, SVG Export Plug-In . SVG Version: 6.00 Build 0)  -->
<svg version="1.1" id="Слой_1" xmlns="http://www.w3.org/2000/svg" xmlns:xlink="http://www.w3.org/1999/xlink" x="0px" y="0px"
	 viewBox="0 0 270 270" style="enable-background:new 0 0 270 270;" xml:space="preserve">
<path id="_x33_" d="M102.4,270V153.3H71.2c-4.1,0-6.8-2.7-6.8-6.8v-38c0-4.1,2.7-6.8,6.8-6.8H101V65.1c1.4-42,27.2-65.1,63.8-65.1
	H196c4.1,0,6.8,2.7,6.8,6.8V38c0,4.1-2.7,6.8-6.8,6.8h-19c-20.4,0-24.4,9.5-24.4,24.4v31.2h44.8c4.1,0,8.1,4.1,6.8,8.1l-4.1,39.3
	c0,4.1-4.1,6.8-6.8,6.8h-40.7v116.7L102.4,270z"/>
</svg>
