<?xml version="1.0" encoding="utf-8"?>
<!-- Generator: Adobe Illustrator 17.1.0, SVG Export Plug-In . SVG Version: 6.00 Build 0)  -->
<!DOCTYPE svg PUBLIC "-//W3C//DTD SVG 1.1//EN" "http://www.w3.org/Graphics/SVG/1.1/DTD/svg11.dtd">
<svg version="1.1" id="Слой_1" xmlns="http://www.w3.org/2000/svg" xmlns:xlink="http://www.w3.org/1999/xlink" x="0px" y="0px"
	 viewBox="0 0 10.4 19.9" enable-background="new 0 0 10.4 19.9" xml:space="preserve">
<path id="_x33_" fill="#FFFFFF" d="M2.8,19.9l0-8.6H0.5c-0.3,0-0.5-0.2-0.5-0.5L0,8c0-0.3,0.2-0.5,0.5-0.5h2.2V4.8
	C2.8,1.7,4.7,0,7.4,0h2.3c0.3,0,0.5,0.2,0.5,0.5v2.3c0,0.3-0.2,0.5-0.5,0.5l-1.4,0c-1.5,0-1.8,0.7-1.8,1.8v2.3h3.3
	c0.3,0,0.6,0.3,0.5,0.6L10,10.9c0,0.3-0.3,0.5-0.5,0.5h-3l0,8.6L2.8,19.9z"/>
</svg>
