<?xml version="1.0" encoding="utf-8"?>
<!-- Generator: Adobe Illustrator 17.1.0, SVG Export Plug-In . SVG Version: 6.00 Build 0)  -->
<!DOCTYPE svg PUBLIC "-//W3C//DTD SVG 1.1//EN" "http://www.w3.org/Graphics/SVG/1.1/DTD/svg11.dtd">
<svg version="1.1" id="Слой_1" xmlns="http://www.w3.org/2000/svg" xmlns:xlink="http://www.w3.org/1999/xlink" x="0px" y="0px"
	 viewBox="0 0 270 270" enable-background="new 0 0 270 270" xml:space="preserve">
<g id="_x35_">
	<path d="M81.9,129.6v21.7h51.8c-5.9,26.7-25.1,43.5-51,43.5c-33.4,0-60.2-26.7-60.2-60.2s26.7-60.2,60.2-60.2
		c15.9,0,30.1,5.9,41,15.9l16.7-15C126.2,61,106.2,51.8,82.8,51.8C36.8,51.8,0,88.6,0,134.6s36.8,82.8,82.8,82.8
		c44.3,0,76.1-33.4,76.1-79.4v-8.4C158.8,129.6,81.9,129.6,81.9,129.6z"/>
	<polygon points="270,131.2 238.2,131.2 238.2,98.6 217.3,98.6 217.3,131.2 185.6,131.2 185.6,151.3 217.3,151.3 217.3,183.1 
		238.2,183.1 238.2,151.3 270,151.3 	"/>
</g>
</svg>
