<?xml version="1.0" encoding="utf-8"?>
<!-- Generator: Adobe Illustrator 17.1.0, SVG Export Plug-In . SVG Version: 6.00 Build 0)  -->
<!DOCTYPE svg PUBLIC "-//W3C//DTD SVG 1.1//EN" "http://www.w3.org/Graphics/SVG/1.1/DTD/svg11.dtd">
<svg version="1.1" id="Слой_1" xmlns="http://www.w3.org/2000/svg" xmlns:xlink="http://www.w3.org/1999/xlink" x="0px" y="0px"
	 viewBox="0 0 32.3 19.9" enable-background="new 0 0 32.3 19.9" xml:space="preserve">
<g id="_x35_">
	<path fill="#FFFFFF" d="M9.8,9.3l0,2.6H16c-0.7,3.2-3,5.2-6.1,5.2c-4,0-7.2-3.2-7.2-7.2c0-4,3.2-7.2,7.2-7.2c1.9,0,3.6,0.7,4.9,1.9
		l2-1.8C15.1,1.1,12.7,0,9.9,0C4.4,0,0,4.4,0,9.9c0,5.5,4.4,9.9,9.9,9.9c5.3,0,9.1-4,9.1-9.5l0-1H9.8z"/>
	<polygon fill="#FFFFFF" points="32.3,9.5 28.5,9.5 28.5,5.6 26,5.6 26,9.5 22.2,9.5 22.2,11.9 26,11.9 26,15.7 28.5,15.7 
		28.5,11.9 32.3,11.9 	"/>
</g>
</svg>
