<?xml version="1.0" encoding="utf-8"?>
<!-- Generator: Adobe Illustrator 17.1.0, SVG Export Plug-In . SVG Version: 6.00 Build 0)  -->
<!DOCTYPE svg PUBLIC "-//W3C//DTD SVG 1.1//EN" "http://www.w3.org/Graphics/SVG/1.1/DTD/svg11.dtd">
<svg version="1.1" id="Слой_1" xmlns="http://www.w3.org/2000/svg" xmlns:xlink="http://www.w3.org/1999/xlink" x="0px" y="0px"
	 viewBox="0 0 270 270" enable-background="new 0 0 270 270" xml:space="preserve">
<g>
	<path d="M197.4,270H73.2C32.7,270,0,237.3,0,197.4V73.2C0,32.7,32.7,0,73.2,0h124.2c40.5,0,73.2,32.7,73.2,73.2v124.2
		C270,237.3,237.3,270,197.4,270z M73.2,21.6c-28.3,0-51,22.7-51,51v124.2c0,28.3,22.7,51,51,51h124.2c28.3,0,51-22.7,51-51V73.2
		c0-28.3-22.7-51-51-51H73.2V21.6z"/>
	<path d="M135.3,195.2c-12.8,0-25.5-3.9-36-12.2c-12.8-9.4-21.6-23.8-23.8-39.9c-2.2-16.1,1.7-32.2,11.1-44.9s23.8-21.6,39.9-23.8
		c6.1-1.1,11.6-1.1,17.7,0c12.8,1.7,24.9,7.8,33.8,17.2c9.4,9.4,15,21.1,17.2,33.8l0,0c2.2,16.1-1.7,32.2-11.1,44.9
		c-9.4,12.8-23.8,21.6-39.9,23.8C141.4,195.2,138.6,195.2,135.3,195.2z M135.8,95.9c-1.7,0-3.9,0-5.5,0.6
		c-10,1.7-19.4,7.2-25.5,15.5s-8.9,18.3-7.2,28.8c1.7,10,7.2,19.4,15.5,25.5s18.3,8.9,28.8,7.2c21.1-3.3,36-22.7,32.7-43.8
		c-2.8-17.2-15.5-29.9-32.7-32.7C139.7,95.9,137.5,95.9,135.8,95.9z"/>
	<path d="M203.5,77.6c-2.8,0-5.5-1.1-7.8-3.3c-2.2-2.2-3.3-5-3.3-7.8c0-2.8,1.1-5.5,3.3-7.8c2.2-2.2,5-3.3,7.8-3.3s5.5,1.1,7.8,3.3
		c2.2,2.2,3.3,5,3.3,7.8c0,2.8-1.1,5.5-3.3,7.8C209,76.5,206.2,77.6,203.5,77.6z"/>
</g>
</svg>
