<?xml version="1.0" encoding="utf-8"?>
<!-- Generator: Adobe Illustrator 21.1.0, SVG Export Plug-In . SVG Version: 6.00 Build 0)  -->
<svg version="1.1" id="Слой_1" xmlns="http://www.w3.org/2000/svg" xmlns:xlink="http://www.w3.org/1999/xlink" x="0px" y="0px"
	 viewBox="0 0 20 20" style="enable-background:new 0 0 20 20;" xml:space="preserve">
<path id="_x32__1_" d="M19.2,0.8C18.7,0.3,18.1,0,17.4,0H2.6C1.9,0,1.3,0.3,0.8,0.8S0,1.9,0,2.6v14.9c0,0.7,0.3,1.3,0.8,1.8
	C1.3,19.7,1.9,20,2.6,20h14.9c0.7,0,1.3-0.3,1.8-0.8s0.8-1.1,0.8-1.8V2.6C20,1.9,19.7,1.3,19.2,0.8L19.2,0.8z M7.2,7.2
	C8,6.4,8.9,6.1,10,6.1s2.1,0.4,2.8,1.1C13.6,8,14,8.9,14,10s-0.4,2-1.2,2.8s-1.7,1.1-2.8,1.1s-2-0.4-2.8-1.1C6.4,12,6,11,6,10
	C6,8.9,6.4,8,7.2,7.2L7.2,7.2z M17.7,16.9c0,0.2-0.1,0.4-0.2,0.6c-0.2,0.2-0.3,0.2-0.6,0.2H3c-0.2,0-0.4-0.1-0.6-0.2
	c-0.2-0.2-0.2-0.3-0.2-0.6V8.5H4C3.9,9,3.8,9.6,3.8,10.2c0,1.7,0.6,3.1,1.8,4.3s2.7,1.8,4.4,1.8c1.1,0,2.2-0.3,3.1-0.8
	c1-0.5,1.7-1.3,2.3-2.2c0.6-0.9,0.8-1.9,0.8-3c0-0.6-0.1-1.2-0.3-1.7h1.8V16.9z M17.7,5.3c0,0.3-0.1,0.5-0.3,0.6
	c-0.2,0.2-0.4,0.3-0.6,0.3h-2.3c-0.3,0-0.5-0.1-0.6-0.3c-0.2-0.2-0.3-0.4-0.3-0.6V3.1c0-0.2,0.1-0.5,0.3-0.6
	c0.2-0.2,0.4-0.3,0.6-0.3h2.3c0.3,0,0.5,0.1,0.6,0.3c0.2,0.2,0.3,0.4,0.3,0.6V5.3z"/>
</svg>
