<?xml version="1.0" encoding="utf-8"?>
<!-- Generator: Adobe Illustrator 25.3.1, SVG Export Plug-In . SVG Version: 6.00 Build 0)  -->
<svg version="1.1" id="Слой_1" xmlns="http://www.w3.org/2000/svg" xmlns:xlink="http://www.w3.org/1999/xlink" x="0px" y="0px"
	 viewBox="0 0 512 512" style="enable-background:new 0 0 512 512;" xml:space="preserve">
<style type="text/css">
	.st0{fill:#76C100;}
</style>
<path class="st0" d="M301,256c0,24.85-20.15,45-45,45s-45-20.15-45-45s20.15-45,45-45S301,231.15,301,256z"/>
<path class="st0" d="M332,120H180c-33.09,0-60,26.91-60,60v152c0,33.09,26.91,60,60,60h152c33.09,0,60-26.91,60-60V180
	C392,146.91,365.09,120,332,120z M256,331c-41.36,0-75-33.64-75-75s33.64-75,75-75s75,33.64,75,75S297.36,331,256,331z M342,185
	c-8.29,0-15-6.71-15-15s6.71-15,15-15s15,6.71,15,15S350.29,185,342,185z"/>
<path class="st0" d="M377,0H135C60.56,0,0,60.56,0,135v242c0,74.44,60.56,135,135,135h242c74.44,0,135-60.56,135-135V135
	C512,60.56,451.44,0,377,0z M422,332c0,49.63-40.38,90-90,90H180c-49.63,0-90-40.38-90-90V180c0-49.63,40.38-90,90-90h152
	c49.63,0,90,40.38,90,90V332z"/>
</svg>
