<?xml version="1.0" encoding="utf-8"?>
<!-- Generator: Adobe Illustrator 17.1.0, SVG Export Plug-In . SVG Version: 6.00 Build 0)  -->
<!DOCTYPE svg PUBLIC "-//W3C//DTD SVG 1.1//EN" "http://www.w3.org/Graphics/SVG/1.1/DTD/svg11.dtd">
<svg version="1.1" id="Слой_1" xmlns="http://www.w3.org/2000/svg" xmlns:xlink="http://www.w3.org/1999/xlink" x="0px" y="0px"
	 viewBox="0 0 270 270" enable-background="new 0 0 270 270" xml:space="preserve">
<path id="_x32__1_" fill="#818385" d="M259.2,10.8C252.5,4.1,244.4,0,234.9,0H35.1c-9.4,0-17.5,4.1-24.3,10.8S0,25.6,0,35.1v201.1
	c0,9.5,4.1,17.5,10.8,24.3c6.7,5.4,14.8,9.5,24.3,9.5h201.1c9.5,0,17.5-4,24.3-10.8s10.8-14.9,10.8-24.3V35.1
	C270,25.6,266,17.5,259.2,10.8L259.2,10.8z M97.2,97.2C108,86.4,120.1,82.3,135,82.3s28.4,5.4,37.8,14.8
	C183.6,108,189,120.1,189,135s-5.4,27-16.2,37.8s-22.9,14.9-37.8,14.9s-27-5.4-37.8-14.9C86.4,162,81,148.5,81,135
	C81,120.1,86.4,108,97.2,97.2L97.2,97.2z M239,228.1c0,2.7-1.4,5.4-2.7,8.1c-2.7,2.7-4,2.7-8.1,2.7H40.5c-2.7,0-5.4-1.4-8.1-2.7
	c-2.7-2.7-2.7-4-2.7-8.1V114.8H54c-1.3,6.8-2.7,14.9-2.7,22.9c0,22.9,8.1,41.8,24.3,58.1S112.1,220,135,220
	c14.9,0,29.7-4.1,41.9-10.8c13.5-6.8,22.9-17.6,31.1-29.7c8.1-12.1,10.8-25.6,10.8-40.5c0-8.1-1.4-16.2-4.1-22.9H239V228.1z
	 M239,71.6c0,4.1-1.4,6.8-4,8.1c-2.7,2.7-5.4,4.1-8.1,4.1h-31.1c-4.1,0-6.8-1.3-8.1-4.1c-2.7-2.7-4.1-5.4-4.1-8.1V41.8
	c0-2.7,1.4-6.8,4.1-8.1c2.7-2.7,5.4-4,8.1-4h31.1c4,0,6.8,1.3,8.1,4c2.7,2.7,4,5.4,4,8.1V71.6z"/>
</svg>
