<?xml version="1.0" encoding="utf-8"?>
<!-- Generator: Adobe Illustrator 23.1.0, SVG Export Plug-In . SVG Version: 6.00 Build 0)  -->
<svg version="1.1" id="Слой_1" xmlns="http://www.w3.org/2000/svg" xmlns:xlink="http://www.w3.org/1999/xlink" x="0px" y="0px"
	 viewBox="0 0 20 20" style="enable-background:new 0 0 20 20;" xml:space="preserve">
<style type="text/css">
	.st0{fill:#FF3506;}
	.st1{fill:#FFFFFF;}
</style>
<g id="Inst_5_">
	<circle class="st0" cx="10" cy="10" r="10"/>
	<path class="st1" d="M16.02,13.01c0,1.67-1.36,3.03-3.03,3.03H7.02c-1.67,0-3.03-1.36-3.03-3.03V7.05c0-1.67,1.36-3.03,3.03-3.03
		h5.96c1.67,0,3.03,1.36,3.03,3.03V13.01z"/>
	<path class="st0" d="M12.98,5.32H7.02c-0.95,0-1.73,0.77-1.73,1.73v5.96c0,0.95,0.77,1.73,1.73,1.73h5.96
		c0.95,0,1.73-0.77,1.73-1.73V7.05C14.71,6.1,13.93,5.32,12.98,5.32z"/>
	<path class="st1" d="M10,13.13c-1.71,0-3.1-1.39-3.1-3.1c0-1.71,1.39-3.1,3.1-3.1c1.71,0,3.1,1.39,3.1,3.1
		C13.1,11.74,11.71,13.13,10,13.13z"/>
	<path class="st0" d="M13.2,7.57c-0.4,0-0.73-0.33-0.73-0.73S12.79,6.1,13.2,6.1c0.4,0,0.73,0.33,0.73,0.73
		C13.93,7.24,13.6,7.57,13.2,7.57z"/>
	<path class="st0" d="M10,8.24c-0.99,0-1.79,0.8-1.79,1.79c0,0.99,0.8,1.79,1.79,1.79c0.99,0,1.79-0.8,1.79-1.79
		C11.79,9.04,10.99,8.24,10,8.24z"/>
</g>
</svg>
