<?xml version="1.0" encoding="utf-8"?>
<!-- Generator: Adobe Illustrator 17.1.0, SVG Export Plug-In . SVG Version: 6.00 Build 0)  -->
<!DOCTYPE svg PUBLIC "-//W3C//DTD SVG 1.1//EN" "http://www.w3.org/Graphics/SVG/1.1/DTD/svg11.dtd">
<svg version="1.1" id="Слой_1" xmlns="http://www.w3.org/2000/svg" xmlns:xlink="http://www.w3.org/1999/xlink" x="0px" y="0px"
	 viewBox="0 0 48.7 48.7" enable-background="new 0 0 48.7 48.7" xml:space="preserve">
<g>
	<path fill="#FFFFFF" d="M35.6,48.7H13.2C5.9,48.7,0,42.8,0,35.6V13.2C0,5.9,5.9,0,13.2,0h22.4c7.3,0,13.2,5.9,13.2,13.2v22.4
		C48.7,42.8,42.8,48.7,35.6,48.7z M13.2,3.9c-5.1,0-9.2,4.1-9.2,9.2v22.4c0,5.1,4.1,9.2,9.2,9.2h22.4c5.1,0,9.2-4.1,9.2-9.2V13.2
		c0-5.1-4.1-9.2-9.2-9.2H13.2z"/>
	<path fill="#FFFFFF" d="M24.4,35.2c-2.3,0-4.6-0.7-6.5-2.2c-2.3-1.7-3.9-4.3-4.3-7.2c-0.4-2.9,0.3-5.8,2-8.1s4.3-3.9,7.2-4.3
		c1.1-0.2,2.1-0.2,3.2,0c2.3,0.3,4.5,1.4,6.1,3.1c1.7,1.7,2.7,3.8,3.1,6.1l0,0c0.4,2.9-0.3,5.8-2,8.1c-1.7,2.3-4.3,3.9-7.2,4.3
		C25.5,35.2,25,35.2,24.4,35.2z M24.5,17.3c-0.3,0-0.7,0-1,0.1c-1.8,0.3-3.5,1.3-4.6,2.8c-1.1,1.5-1.6,3.3-1.3,5.2
		c0.3,1.8,1.3,3.5,2.8,4.6c1.5,1.1,3.3,1.6,5.2,1.3c3.8-0.6,6.5-4.1,5.9-7.9c-0.5-3.1-2.8-5.4-5.9-5.9
		C25.2,17.3,24.8,17.3,24.5,17.3z"/>
	<path fill="#FFFFFF" d="M36.7,14c-0.5,0-1-0.2-1.4-0.6c-0.4-0.4-0.6-0.9-0.6-1.4c0-0.5,0.2-1,0.6-1.4c0.4-0.4,0.9-0.6,1.4-0.6
		c0.5,0,1,0.2,1.4,0.6c0.4,0.4,0.6,0.9,0.6,1.4s-0.2,1-0.6,1.4C37.7,13.8,37.2,14,36.7,14z"/>
</g>
</svg>
