<?xml version="1.0" encoding="utf-8"?>
<!-- Generator: Adobe Illustrator 17.1.0, SVG Export Plug-In . SVG Version: 6.00 Build 0)  -->
<!DOCTYPE svg PUBLIC "-//W3C//DTD SVG 1.1//EN" "http://www.w3.org/Graphics/SVG/1.1/DTD/svg11.dtd">
<svg version="1.1" id="Слой_1" xmlns="http://www.w3.org/2000/svg" xmlns:xlink="http://www.w3.org/1999/xlink" x="0px" y="0px"
	 viewBox="0 0 270 270" enable-background="new 0 0 270 270" xml:space="preserve">
<path id="_x38__1_" stroke="#FFFFFF" stroke-miterlimit="10" d="M0,32.9v204.3h270V32.9H0z M143.7,147.8c-2.1,2.1-5.1,3.1-8.2,3.1
	s-6.2-1-8.2-3.1L31.8,51.3h207.4L143.7,147.8z M87.3,134.5l-68.8,69.8V65.7L87.3,134.5z M100.6,147.8l13.3,13.3
	c5.1,5.1,13.3,9.2,21.6,9.2s16.4-3.1,21.6-9.2l13.3-13.3l67.8,69.8H31.8L100.6,147.8z M183.8,134.5l67.8-67.8v137.6L183.8,134.5z"/>
</svg>
