<?xml version="1.0" encoding="utf-8"?>
<!-- Generator: Adobe Illustrator 17.1.0, SVG Export Plug-In . SVG Version: 6.00 Build 0)  -->
<!DOCTYPE svg PUBLIC "-//W3C//DTD SVG 1.1//EN" "http://www.w3.org/Graphics/SVG/1.1/DTD/svg11.dtd">
<svg version="1.1" id="Слой_1" xmlns="http://www.w3.org/2000/svg" xmlns:xlink="http://www.w3.org/1999/xlink" x="0px" y="0px"
	 viewBox="0 0 26.3 19.9" enable-background="new 0 0 26.3 19.9" xml:space="preserve">
<path id="_x38__1_" fill="#FFFFFF" d="M0,0v19.9h26.3V0H0z M14,11.2c-0.2,0.2-0.5,0.3-0.8,0.3c-0.3,0-0.6-0.1-0.8-0.3L3.1,1.8h20.2
	L14,11.2z M8.5,9.9l-6.7,6.8V3.2L8.5,9.9z M9.8,11.2l1.3,1.3c0.5,0.5,1.3,0.9,2.1,0.9c0.8,0,1.6-0.3,2.1-0.9l1.3-1.3l6.6,6.8H3.1
	L9.8,11.2z M17.9,9.9l6.6-6.6v13.4L17.9,9.9z"/>
</svg>
