<?xml version="1.0" encoding="utf-8"?>
<!-- Generator: Adobe Illustrator 17.1.0, SVG Export Plug-In . SVG Version: 6.00 Build 0)  -->
<!DOCTYPE svg PUBLIC "-//W3C//DTD SVG 1.1//EN" "http://www.w3.org/Graphics/SVG/1.1/DTD/svg11.dtd">
<svg version="1.1" id="Слой_1" xmlns="http://www.w3.org/2000/svg" xmlns:xlink="http://www.w3.org/1999/xlink" x="0px" y="0px"
	 viewBox="0 0 270 270" enable-background="new 0 0 270 270" xml:space="preserve">
<path id="_x34__1_" fill="#818385" d="M270,50.8c-10,4.5-21.2,7.8-32.4,8.9c11.2-6.7,20.1-17.9,24.5-31.2
	c-11.2,6.7-22.3,11.2-35.7,13.4c-10-11.2-24.5-17.9-40.2-17.9c-30.1,0-55.8,24.5-55.8,55.8c0,4.5,0,8.9,1.1,12.3
	C87,90.9,45.7,68.6,19,35.1C14.5,43,11.2,53,11.2,63c0,19,10,35.7,24.5,45.7c-8.9,0-17.9-2.2-24.5-6.7c0,0,0,0,0,1.1
	c0,26.8,19,49.1,44.6,54.7c-5.6,1.1-10,1.1-14.5,1.1c-3.3,0-6.7,0-10-1.1c6.7,22.3,27.9,37.9,51.3,39c-19,14.5-42.4,23.4-69.2,23.4
	c-4.5,0-8.9,0-13.4-1.1c24.5,15.6,53.6,24.5,84.8,24.5c101.5,0,157.3-84.8,157.3-157.3c0-2.2,0-4.5,0-6.7
	C253.3,72,263.3,61.9,270,50.8L270,50.8z"/>
</svg>
