<?xml version="1.0" encoding="utf-8"?>
<!-- Generator: Adobe Illustrator 17.1.0, SVG Export Plug-In . SVG Version: 6.00 Build 0)  -->
<!DOCTYPE svg PUBLIC "-//W3C//DTD SVG 1.1//EN" "http://www.w3.org/Graphics/SVG/1.1/DTD/svg11.dtd">
<svg version="1.1" id="Слой_1" xmlns="http://www.w3.org/2000/svg" xmlns:xlink="http://www.w3.org/1999/xlink" x="0px" y="0px"
	 viewBox="0 0 24.2 19.7" enable-background="new 0 0 24.2 19.7" xml:space="preserve">
<path id="_x34__1_" fill="#FFFFFF" d="M24.2,2.3c-0.9,0.4-1.9,0.7-2.9,0.8c1-0.6,1.8-1.6,2.2-2.8c-1,0.6-2,1-3.2,1.2
	c-0.9-1-2.2-1.6-3.6-1.6c-2.7,0-5,2.2-5,5c0,0.4,0,0.8,0.1,1.1C7.8,5.9,4.1,3.9,1.7,0.9C1.3,1.6,1,2.5,1,3.4c0,1.7,0.9,3.2,2.2,4.1
	C2.4,7.5,1.6,7.3,1,6.9c0,0,0,0,0,0.1c0,2.4,1.7,4.4,4,4.9C4.5,12,4.1,12,3.7,12c-0.3,0-0.6,0-0.9-0.1c0.6,2,2.5,3.4,4.6,3.5
	c-1.7,1.3-3.8,2.1-6.2,2.1c-0.4,0-0.8,0-1.2-0.1c2.2,1.4,4.8,2.2,7.6,2.2c9.1,0,14.1-7.6,14.1-14.1c0-0.2,0-0.4,0-0.6
	C22.7,4.2,23.6,3.3,24.2,2.3L24.2,2.3z"/>
</svg>
