<?xml version="1.0" encoding="utf-8"?>
<!-- Generator: Adobe Illustrator 23.1.0, SVG Export Plug-In . SVG Version: 6.00 Build 0)  -->
<svg version="1.1" id="Слой_1" xmlns="http://www.w3.org/2000/svg" xmlns:xlink="http://www.w3.org/1999/xlink" x="0px" y="0px"
	 viewBox="0 0 20 20" style="enable-background:new 0 0 20 20;" xml:space="preserve">
<style type="text/css">
	.st0{fill:#4D76A1;}
	.st1{fill:#FFFFFF;}
</style>
<g id="Vk_5_">
	<circle id="XMLID_5_" class="st0" cx="10" cy="10" r="10"/>
	<path class="st1" d="M9.62,14.39h0.78c0,0,0.24-0.03,0.36-0.16c0.11-0.12,0.11-0.34,0.11-0.34s-0.02-1.05,0.47-1.21
		c0.48-0.15,1.1,1.02,1.76,1.47c0.5,0.34,0.87,0.27,0.87,0.27l1.75-0.02c0,0,0.92-0.06,0.48-0.78c-0.04-0.06-0.25-0.53-1.3-1.51
		c-1.1-1.02-0.95-0.86,0.37-2.62c0.81-1.08,1.13-1.73,1.03-2.01c-0.1-0.27-0.69-0.2-0.69-0.2l-1.97,0.01c0,0-0.15-0.02-0.25,0.04
		c-0.11,0.06-0.17,0.21-0.17,0.21s-0.31,0.83-0.73,1.54c-0.88,1.49-1.23,1.57-1.37,1.48c-0.33-0.22-0.25-0.87-0.25-1.33
		c0-1.45,0.22-2.05-0.43-2.21c-0.21-0.05-0.37-0.09-0.92-0.09c-0.7-0.01-1.3,0-1.64,0.17c-0.22,0.11-0.4,0.36-0.29,0.37
		c0.13,0.02,0.43,0.08,0.58,0.29c0.2,0.28,0.2,0.89,0.2,0.89s0.12,1.7-0.27,1.91c-0.27,0.15-0.63-0.15-1.42-1.51
		c-0.4-0.69-0.7-1.46-0.7-1.46S5.91,7.46,5.81,7.38C5.68,7.29,5.5,7.26,5.5,7.26L3.63,7.27c0,0-0.28,0.01-0.39,0.13
		C3.15,7.51,3.23,7.73,3.23,7.73s1.47,3.44,3.13,5.17C7.89,14.49,9.62,14.39,9.62,14.39L9.62,14.39z"/>
</g>
</svg>
