<?xml version="1.0" encoding="utf-8"?>
<!-- Generator: Adobe Illustrator 17.1.0, SVG Export Plug-In . SVG Version: 6.00 Build 0)  -->
<!DOCTYPE svg PUBLIC "-//W3C//DTD SVG 1.1//EN" "http://www.w3.org/Graphics/SVG/1.1/DTD/svg11.dtd">
<svg version="1.1" id="Слой_1" xmlns="http://www.w3.org/2000/svg" xmlns:xlink="http://www.w3.org/1999/xlink" x="0px" y="0px"
	 viewBox="0 0 270 270" enable-background="new 0 0 270 270" xml:space="preserve">
<path fill="#818385" d="M132.1,224h16.2c0,0,5-0.5,7.2-3.6c2.7-3.2,2.3-8.6,2.3-8.6s-0.5-25.2,9.9-28.8c9.9-3.6,22.5,24.3,36.1,35.2
	c10.4,8.1,18,6.3,18,6.3l36.1-0.5c0,0,18.9-1.4,9.9-18.5c-0.9-1.4-5.4-12.6-27-36.1c-22.5-24.3-19.4-20.7,7.7-63.1
	c16.7-25.7,23.4-41.5,21.2-48.2c-1.8-6.3-14-4.5-14-4.5L215,54.1c0,0-3.2-0.5-5.4,0.9c-2.3,1.4-3.6,5-3.6,5s-6.3,19.8-14.9,37
	c-18,36.1-25.2,37.9-28.4,35.6c-6.8-5.4-5-20.7-5-32c0-34.7,4.5-49.1-9-52.7c-4.5-1.4-7.7-2.3-18.9-2.3c-14.4,0-26.6,0-33.8,4.1
	c-4.5,2.7-8.1,8.6-5.9,9c2.7,0,9,1.4,12.2,6.3c4.1,6.8,4.1,21.6,4.1,21.6s2.3,41-5.4,46c-5.4,3.6-13.1-3.6-29.3-36.1
	c-8.1-16.7-14.4-35.2-14.4-35.2s-1.4-3.6-3.2-5.4c-2.7-2.3-6.3-3.2-6.3-3.2L9,53.2c0,0-5.9,0-8.1,3.2c-1.8,2.7,0,8.1,0,8.1
	s30.2,82.5,64.5,124C96.5,226.7,132.1,224,132.1,224L132.1,224z"/>
</svg>
