<?xml version="1.0" encoding="utf-8"?>
<!-- Generator: Adobe Illustrator 17.1.0, SVG Export Plug-In . SVG Version: 6.00 Build 0)  -->
<!DOCTYPE svg PUBLIC "-//W3C//DTD SVG 1.1//EN" "http://www.w3.org/Graphics/SVG/1.1/DTD/svg11.dtd">
<svg version="1.1" id="Слой_1" xmlns="http://www.w3.org/2000/svg" xmlns:xlink="http://www.w3.org/1999/xlink" x="0px" y="0px"
	 viewBox="0 0 270 270" enable-background="new 0 0 270 270" xml:space="preserve">
<path fill="#818385" d="M228.4,144.5c-10.9-10.9-23.2-19.1-40.9-21.8v-1.4c12.3-5.5,20.5-12.3,27.3-23.2c6.8-10.9,9.5-21.8,9.5-35.5
	c0-10.9-2.7-21.8-6.8-30c-5.5-8.2-12.3-16.4-21.8-20.5c-9.5-5.5-19.1-8.2-28.6-9.5C157.5,1.4,142.5,0,122,0H26.6v270h107.7
	c19.1,0,34.1-1.4,46.4-5.5c12.3-4.1,23.2-9.5,34.1-17.7c8.2-6.8,15-15,20.5-25.9c5.5-8.2,8.2-19.1,8.2-32.7
	C243.4,170.5,238,155.5,228.4,144.5z M94.8,50.5h4.1c12.3,0,20.5,0,27.3,0s12.3,0,16.4,2.7c4.1,1.4,8.2,5.5,10.9,9.5
	c1.4,4.1,2.7,9.5,2.7,13.6c0,5.5-1.4,10.9-2.7,16.4c-1.4,5.5-5.5,8.2-10.9,10.9c-5.5,2.7-10.9,4.1-15,4.1c-4.1,0-12.3,0-24.5,0h-8.2
	V50.5z M169.8,204.5c-2.7,5.5-6.8,9.5-13.6,12.3c-6.8,4.1-13.6,5.5-20.5,5.5s-19.1,0-36.8,0h-4.1v-68.2H107c12.3,0,21.8,0,28.6,0
	s13.6,0,16.4,2.7c6.8,2.7,10.9,5.5,15,10.9c4.1,4.1,5.5,10.9,5.5,19.1C172.5,193.6,171.1,199.1,169.8,204.5z"/>
</svg>
