<?xml version="1.0" encoding="utf-8"?>
<!-- Generator: Adobe Illustrator 17.1.0, SVG Export Plug-In . SVG Version: 6.00 Build 0)  -->
<!DOCTYPE svg PUBLIC "-//W3C//DTD SVG 1.1//EN" "http://www.w3.org/Graphics/SVG/1.1/DTD/svg11.dtd">
<svg version="1.1" id="Слой_1" xmlns="http://www.w3.org/2000/svg" xmlns:xlink="http://www.w3.org/1999/xlink" x="0px" y="0px"
	 viewBox="0 0 15.9 19.8" enable-background="new 0 0 15.9 19.8" xml:space="preserve">
<path id="_x31__2_" fill-rule="evenodd" clip-rule="evenodd" fill="#FFFFFF" d="M15.9,13.8c0-1.3-0.4-2.4-1.1-3.2
	C14,9.8,13.1,9.2,11.8,9V8.9c0.9-0.4,1.5-0.9,2-1.7c0.5-0.8,0.7-1.6,0.7-2.6c0-0.8-0.2-1.6-0.5-2.2c-0.4-0.6-0.9-1.2-1.6-1.5
	c-0.7-0.4-1.4-0.6-2.1-0.7C9.6,0.1,8.5,0,7,0H0v19.8h7.9c1.4,0,2.5-0.1,3.4-0.4c0.9-0.3,1.7-0.7,2.5-1.3c0.6-0.5,1.1-1.1,1.5-1.9
	C15.7,15.6,15.9,14.8,15.9,13.8L15.9,13.8z M9.5,5.6c0-0.3-0.1-0.7-0.2-1C9.1,4.3,8.8,4,8.5,3.9C8.2,3.7,7.8,3.7,7.3,3.7
	c-0.5,0-1.1,0-2,0H5v4.2h0.6c0.9,0,1.5,0,1.8,0c0.3,0,0.7-0.1,1.1-0.3c0.4-0.2,0.7-0.4,0.8-0.8C9.4,6.4,9.5,6,9.5,5.6L9.5,5.6z
	 M10.7,13.7c0-0.6-0.1-1.1-0.4-1.4c-0.3-0.4-0.6-0.6-1.1-0.8C9,11.3,8.5,11.3,8,11.3c-0.5,0-1.2,0-2.1,0H5v5h0.3c1.3,0,2.2,0,2.7,0
	c0.5,0,1-0.1,1.5-0.4c0.5-0.2,0.8-0.5,1-0.9C10.6,14.6,10.7,14.2,10.7,13.7z"/>
</svg>
