<?xml version="1.0" encoding="utf-8"?>
<!-- Generator: Adobe Illustrator 17.1.0, SVG Export Plug-In . SVG Version: 6.00 Build 0)  -->
<!DOCTYPE svg PUBLIC "-//W3C//DTD SVG 1.1//EN" "http://www.w3.org/Graphics/SVG/1.1/DTD/svg11.dtd">
<svg version="1.1" id="Capa_1" xmlns="http://www.w3.org/2000/svg" xmlns:xlink="http://www.w3.org/1999/xlink" x="0px" y="0px"
	 viewBox="0 0 270 270" enable-background="new 0 0 270 270" xml:space="preserve">
<g>
	<g>
		<path fill="#FFFFFF" d="M258.5,60.1c-7.3-13-15.3-15.4-31.5-16.3c-16.2-1.1-56.8-1.6-92-1.6c-35.3,0-76,0.5-92.1,1.5
			C26.8,44.7,18.8,47,11.4,60.1C3.9,73.1,0,95.5,0,134.9c0,0,0,0.1,0,0.1c0,0,0,0.1,0,0.1v0c0,39.3,3.9,61.9,11.4,74.7
			c7.4,13,15.3,15.4,31.5,16.5c16.2,0.9,56.8,1.5,92.1,1.5c35.2,0,75.9-0.6,92.1-1.5c16.2-1.1,24.1-3.5,31.5-16.5
			c7.6-12.9,11.5-35.5,11.5-74.7c0,0,0-0.1,0-0.1c0,0,0,0,0-0.1C270,95.5,266.2,73.1,258.5,60.1z M101.3,185.6V84.4l84.4,50.6
			L101.3,185.6z"/>
	</g>
</g>
</svg>
