<?xml version="1.0" encoding="utf-8"?>
<!-- Generator: Adobe Illustrator 25.3.1, SVG Export Plug-In . SVG Version: 6.00 Build 0)  -->
<svg version="1.1" id="Слой_1" xmlns:svgjs="http://svgjs.com/svgjs"
	 xmlns="http://www.w3.org/2000/svg" xmlns:xlink="http://www.w3.org/1999/xlink" x="0px" y="0px" viewBox="0 0 512 512"
	 style="enable-background:new 0 0 512 512;" xml:space="preserve">
<style type="text/css">
	.st0{fill:#76C100;}
</style>
<g>
	<g>
		<g>
			<g>
				<path class="st0" d="M0,256c0,9.93,8.05,17.99,17.99,17.99h433.15L337.67,387.35c-3.45,3.45-5.23,8.05-5.23,12.65
					c0,4.6,1.78,9.2,5.23,12.65c7.01,7.01,18.41,7.01,25.41,0l143.9-144c6.69-6.69,6.69-18.61,0-25.41l-144-143.9
					c-7.01-7.01-18.41-7.01-25.41,0s-7.01,18.41,0,25.41l113.36,113.36H17.88C7.95,238.01,0,246.07,0,256z"/>
			</g>
		</g>
	</g>
</g>
</svg>
