<?xml version="1.0" encoding="utf-8"?>
<!-- Generator: Adobe Illustrator 25.3.1, SVG Export Plug-In . SVG Version: 6.00 Build 0)  -->
<svg version="1.1" id="Layer_1" xmlns="http://www.w3.org/2000/svg" xmlns:xlink="http://www.w3.org/1999/xlink" x="0px" y="0px"
	 viewBox="0 0 492 492" style="enable-background:new 0 0 492 492;" xml:space="preserve">
<style type="text/css">
	.st0{fill:#FFFFFF;}
</style>
<g>
	<g>
		<path class="st0" d="M382.68,226.8L163.73,7.86C158.67,2.79,151.91,0,144.7,0s-13.97,2.79-19.03,7.86l-16.12,16.12
			c-10.49,10.5-10.49,27.58,0,38.06L293.4,245.9L109.34,429.96c-5.06,5.07-7.86,11.82-7.86,19.03c0,7.21,2.8,13.97,7.86,19.04
			l16.12,16.12c5.07,5.07,11.82,7.86,19.03,7.86s13.97-2.79,19.03-7.86L382.68,265c5.08-5.08,7.86-11.87,7.85-19.09
			C390.54,238.67,387.75,231.88,382.68,226.8z"/>
	</g>
</g>
</svg>
