<?xml version="1.0" encoding="utf-8"?>
<!-- Generator: Adobe Illustrator 25.3.1, SVG Export Plug-In . SVG Version: 6.00 Build 0)  -->
<svg version="1.1" id="Layer_1" xmlns="http://www.w3.org/2000/svg" xmlns:xlink="http://www.w3.org/1999/xlink" x="0px" y="0px"
	 viewBox="0 0 492 492" style="enable-background:new 0 0 492 492;" xml:space="preserve">
<style type="text/css">
	.st0{fill:#FFFFFF;}
</style>
<g>
	<g>
		<path class="st0" d="M109.33,265.2l218.95,218.94c5.06,5.07,11.82,7.86,19.03,7.86s13.97-2.79,19.03-7.86l16.12-16.12
			c10.49-10.5,10.49-27.58,0-38.06L198.61,246.1L382.67,62.04c5.06-5.07,7.86-11.82,7.86-19.03c0-7.21-2.8-13.97-7.86-19.04
			L366.54,7.86C361.47,2.79,354.72,0,347.51,0s-13.97,2.79-19.03,7.86L109.33,227c-5.08,5.08-7.86,11.87-7.85,19.09
			C101.46,253.34,104.25,260.12,109.33,265.2z"/>
	</g>
</g>
</svg>
