<?xml version="1.0" encoding="utf-8"?>
<!-- Generator: Adobe Illustrator 23.1.0, SVG Export Plug-In . SVG Version: 6.00 Build 0)  -->
<svg version="1.1" id="Слой_1" xmlns="http://www.w3.org/2000/svg" xmlns:xlink="http://www.w3.org/1999/xlink" x="0px" y="0px"
	 viewBox="0 0 20 20" style="enable-background:new 0 0 20 20;" xml:space="preserve">
<style type="text/css">
	.st0{fill:#303030;}
	.st1{fill:#FFFFFF;}
</style>
<g id="_x2D__1_">
	<path id="Frame_30_" class="st0" d="M10,0C4.48,0,0,4.48,0,10s4.48,10,10,10s10-4.48,10-10S15.52,0,10,0L10,0z"/>
	<path class="st1" d="M6.15,10.62c-0.03-0.04-0.04-0.1-0.04-0.2V9.58c0-0.08,0.01-0.15,0.04-0.2c0.03-0.05,0.09-0.07,0.2-0.07h2.96
		V6.27c0-0.11,0.02-0.17,0.06-0.2c0.04-0.03,0.11-0.04,0.19-0.04h0.89c0.09,0,0.15,0.01,0.19,0.04c0.04,0.03,0.06,0.09,0.06,0.2
		v3.04h2.96c0.1,0,0.16,0.02,0.18,0.07c0.03,0.05,0.04,0.12,0.04,0.2v0.83c0,0.1-0.01,0.16-0.04,0.2c-0.03,0.04-0.09,0.06-0.18,0.06
		H10.7v3.06c0,0.11-0.02,0.17-0.06,0.2c-0.04,0.03-0.1,0.04-0.19,0.04H9.57c-0.09,0-0.15-0.01-0.19-0.04
		c-0.04-0.03-0.06-0.09-0.06-0.2v-3.06H6.35C6.25,10.67,6.18,10.65,6.15,10.62z"/>
</g>
</svg>
