<?xml version="1.0" encoding="utf-8"?>
<!-- Generator: Adobe Illustrator 25.3.1, SVG Export Plug-In . SVG Version: 6.00 Build 0)  -->
<svg version="1.1" id="Слой_1" xmlns="http://www.w3.org/2000/svg" xmlns:xlink="http://www.w3.org/1999/xlink" x="0px" y="0px"
	 viewBox="0 0 210 38.89" style="enable-background:new 0 0 210 38.89;" xml:space="preserve">
<style type="text/css">
	.st0{fill:#FFFFFF;}
</style>
<g id="Logo_12_">
	<path class="st0" d="M69.26,0.45h-0.11c-0.64,0-1.17,0.52-1.17,1.16v13.63c0,6.55-1.8,10.92-7.83,10.92
		c-6.06,0-8.24-4.37-8.24-10.92V1.62c0-0.64-0.49-1.16-1.13-1.16h-0.11c-0.64,0-1.17,0.52-1.17,1.16v13.63
		c0,7.87,2.79,13.18,10.65,13.18c7.83,0,10.28-5.31,10.28-13.18V1.62C70.42,0.98,69.9,0.45,69.26,0.45z M82.28,23.8h-0.22
		c-1.21,0-2.22,0.94-2.22,2.18v0.19c0,1.24,1.02,2.26,2.22,2.26h0.22c1.17,0,2.19-1.02,2.19-2.26v-0.19
		C84.47,24.74,83.45,23.8,82.28,23.8z M100.84,12.01c-3.46,0.15-4.67-2.64-4.67-4.9c0-2.67,1.88-4.86,4.75-4.86
		c1.84,0,2.9,0.98,4.17,2.52c0.94,1.13,2.9,0.08,2.08-1.39c-1.25-2.18-3.5-3.39-6.25-3.39c-4.15,0-7,3.2-7,7.11
		c0,4.37,3.2,7.34,6.93,7.19c3.43-0.19,5.91,2.52,5.91,5.76c0,3.57-2.26,6.1-5.83,6.1c-2.38,0-3.8-1.35-4.98-3.05
		c-1.24-1.73-3.39-0.3-2.33,1.44c1.47,2.41,4.1,3.87,7.31,3.87c4.81,0,8.13-3.54,8.13-8.35C109.05,14.42,104.12,11.89,100.84,12.01z
		 M120.35,23.8h-0.23c-1.21,0-2.22,0.94-2.22,2.18v0.19c0,1.24,1.02,2.26,2.22,2.26h0.23c1.16,0,2.18-1.02,2.18-2.26v-0.19
		C122.53,24.74,121.51,23.8,120.35,23.8z M145.68,12.39c1.62-0.98,3.01-2.56,3.01-4.98c0-4.97-3.8-6.96-9.04-6.96h-6.55
		c-0.64,0-1.16,0.52-1.16,1.16v25.15c0,0.63,0.52,1.16,1.16,1.16h7.46c5.04,0,9.45-3.01,9.45-7.94c0-2.93-2.03-5.34-4.37-6.85
		C145.23,12.88,145.15,12.72,145.68,12.39z M146.28,7.41c0,3.5-2.75,4.03-6.63,4.03c0,0-3.95,0-4.52,0c-0.53,0-0.75-0.3-0.75-0.82
		c0-1.92,0-6.59,0-6.97c0-0.45,0.19-0.75,0.83-0.75c0.64,0,4.63,0,4.63,0C143.65,2.9,146.28,3.84,146.28,7.41z M140.56,25.49
		c0,0-4.7,0-5.27,0c-0.56,0-0.91-0.3-0.91-0.83c0-0.41,0-7.49,0-9.94c0-0.53,0.19-0.83,0.75-0.83c0.53,0,5.42,0,5.42,0
		c3.69,0,7.04,2.48,7.04,6.1C147.6,23.61,144.25,25.49,140.56,25.49z M161.19,23.8h-0.23c-1.2,0-2.22,0.94-2.22,2.18v0.19
		c0,1.24,1.02,2.26,2.22,2.26h0.23c1.16,0,2.18-1.02,2.18-2.26v-0.19C163.37,24.74,162.36,23.8,161.19,23.8z M186.45,0
		c-7.87,0-14.23,6.33-14.23,14.19c0,7.83,6.36,14.23,14.23,14.23c3.54,0,6.7-1.32,9.11-3.42c0.11-0.12,0.38-0.42,0.38-0.83
		c0-0.19,0-1.51,0-2.41c0-0.42-0.26-0.45-0.49-0.15c-2.03,2.75-5.27,4.56-9,4.56c-6.51,0-11.82-5.46-11.82-11.97
		s5.31-11.94,11.82-11.94c3.73,0,6.97,1.77,9,4.52c0.22,0.3,0.49,0.26,0.49-0.2c0-0.9,0-2.18,0-2.4c0-0.38-0.26-0.72-0.38-0.79
		C193.23,1.39,189.99,0,186.45,0z M206.93,23.8h-0.22c-1.21,0-2.22,0.94-2.22,2.18v0.19c0,1.24,1.02,2.26,2.22,2.26h0.22
		c1.17,0,2.19-1.02,2.19-2.26v-0.19C209.12,24.74,208.1,23.8,206.93,23.8z"/>
	<path class="st0" d="M48.94,35.72h-0.33v1.95c0,0.25,0.03,0.49,0.19,0.72c0.19,0.26,0.5,0.41,0.89,0.41c0.38,0,0.7-0.15,0.88-0.41
		c0.16-0.23,0.19-0.47,0.19-0.72v-1.95h-0.33v1.86c0,0.25,0,0.53-0.24,0.73c-0.12,0.1-0.33,0.17-0.49,0.17
		c-0.17,0-0.38-0.07-0.5-0.17c-0.24-0.2-0.24-0.48-0.24-0.73V35.72z M53.93,38.75v-2.34l2.36,2.48v-3.17h-0.33v2.35l-2.36-2.47v3.16
		H53.93z M59.11,35.72v3.03h0.34v-3.03H59.11z M63.76,36.04v-0.32h-1.81v0.32h0.74v2.71h0.33v-2.71H63.76z M67.83,35.72h-1.57v3.03
		h1.57v-0.32h-1.23v-1.18h1.2v-0.31h-1.2v-0.9h1.23V35.72z M70.49,38.75h0.61c0.54,0,0.84-0.11,1.11-0.35
		c0.22-0.18,0.53-0.53,0.53-1.16c0-0.54-0.24-0.93-0.52-1.16c-0.38-0.33-0.81-0.36-1.11-0.36h-0.62V38.75z M70.82,36.04h0.3
		c0.77,0,1.28,0.47,1.28,1.2c0,0.43-0.17,0.72-0.41,0.92c-0.29,0.24-0.63,0.27-0.86,0.27h-0.3V36.04z M80.13,36.14
		c-0.07-0.13-0.17-0.25-0.3-0.33c-0.15-0.1-0.3-0.14-0.48-0.14c-0.49,0-0.85,0.31-0.85,0.78c0,0.23,0.08,0.37,0.21,0.49
		c0.14,0.13,0.28,0.2,0.4,0.25l0.27,0.13c0.16,0.08,0.27,0.13,0.36,0.21c0.11,0.1,0.15,0.22,0.15,0.36c0,0.31-0.19,0.6-0.61,0.6
		c-0.16,0-0.31-0.03-0.44-0.17c-0.08-0.09-0.15-0.23-0.18-0.38l-0.33,0.09c0.04,0.18,0.13,0.39,0.29,0.54
		c0.21,0.2,0.46,0.24,0.65,0.24c0.55,0,0.96-0.37,0.96-0.93c0-0.22-0.06-0.39-0.22-0.55c-0.13-0.13-0.29-0.21-0.47-0.29l-0.29-0.13
		c-0.12-0.05-0.23-0.1-0.32-0.19c-0.08-0.08-0.11-0.15-0.11-0.26c0-0.29,0.2-0.47,0.51-0.47c0.17,0,0.28,0.05,0.34,0.1
		c0.07,0.05,0.13,0.14,0.17,0.22L80.13,36.14z M83.55,38.75h0.33v-1.3l1-1.73h-0.39l-0.78,1.35l-0.77-1.35h-0.39l1,1.73V38.75z
		 M88.98,36.14c-0.07-0.13-0.17-0.25-0.3-0.33c-0.15-0.1-0.3-0.14-0.48-0.14c-0.49,0-0.85,0.31-0.85,0.78
		c0,0.23,0.08,0.37,0.21,0.49c0.14,0.13,0.28,0.2,0.4,0.25l0.27,0.13c0.16,0.08,0.28,0.13,0.36,0.21c0.11,0.1,0.15,0.22,0.15,0.36
		c0,0.31-0.19,0.6-0.61,0.6c-0.16,0-0.31-0.03-0.43-0.17c-0.09-0.09-0.16-0.23-0.19-0.38l-0.32,0.09c0.03,0.18,0.13,0.39,0.28,0.54
		c0.22,0.2,0.46,0.24,0.65,0.24c0.55,0,0.96-0.37,0.96-0.93c0-0.22-0.06-0.39-0.22-0.55c-0.13-0.13-0.29-0.21-0.47-0.29l-0.29-0.13
		c-0.11-0.05-0.23-0.1-0.32-0.19c-0.08-0.08-0.11-0.15-0.11-0.26c0-0.29,0.2-0.47,0.51-0.47c0.17,0,0.28,0.05,0.34,0.1
		c0.07,0.05,0.13,0.14,0.17,0.22L88.98,36.14z M93.24,36.04v-0.32h-1.81v0.32h0.74v2.71h0.33v-2.71H93.24z M97.31,35.72h-1.57v3.03
		h1.57v-0.32h-1.23v-1.18h1.2v-0.31h-1.2v-0.9h1.23V35.72z M100.21,38.75l0.31-2.11l1.02,2.24l1.03-2.24l0.29,2.11h0.34l-0.47-3.21
		l-1.18,2.56l-1.16-2.56l-0.5,3.2H100.21z M109.84,38.8c0.57,0,1-0.43,1-0.99c0-0.57-0.43-1-1-1c-0.58,0-1,0.43-1,1
		C108.84,38.38,109.27,38.8,109.84,38.8z M109.84,37.11c0.35,0,0.66,0.24,0.66,0.7c0,0.45-0.32,0.7-0.66,0.7
		c-0.33,0-0.66-0.24-0.66-0.7C109.17,37.35,109.5,37.11,109.84,37.11z M114.18,37.16v-0.3h-0.46v-0.78c0-0.1,0-0.21,0.04-0.27
		c0.05-0.09,0.13-0.1,0.21-0.1c0.07,0,0.15,0.01,0.21,0.04v-0.32c-0.03-0.01-0.1-0.03-0.23-0.03c-0.15,0-0.28,0.03-0.38,0.12
		c-0.17,0.15-0.18,0.36-0.18,0.53v0.82h-0.18v0.3h0.18v1.59h0.33v-1.59H114.18z M119.7,35.72v3.03h0.75c0.21,0,0.49-0.01,0.72-0.2
		c0.17-0.13,0.31-0.36,0.31-0.65c0-0.29-0.15-0.65-0.57-0.76c0.26-0.18,0.3-0.45,0.3-0.6c0-0.36-0.18-0.55-0.27-0.62
		c-0.22-0.18-0.54-0.2-0.7-0.2H119.7z M120.04,36.04h0.26c0.09,0,0.59,0.01,0.59,0.51c0,0.47-0.42,0.5-0.6,0.5h-0.25V36.04z
		 M120.04,37.35h0.34c0.24,0,0.4,0.03,0.52,0.09c0.13,0.07,0.26,0.21,0.26,0.45c0,0.18-0.08,0.33-0.2,0.42
		c-0.15,0.11-0.34,0.13-0.54,0.13h-0.38V37.35z M124.49,35.72h-0.33v1.95c0,0.25,0.02,0.49,0.19,0.72c0.18,0.26,0.5,0.41,0.88,0.41
		c0.38,0,0.7-0.15,0.88-0.41c0.17-0.23,0.2-0.47,0.2-0.72v-1.95h-0.34v1.86c0,0.25,0,0.53-0.24,0.73c-0.13,0.1-0.33,0.17-0.5,0.17
		c-0.17,0-0.38-0.07-0.5-0.17c-0.24-0.2-0.24-0.48-0.24-0.73V35.72z M130.75,36.14c-0.07-0.13-0.17-0.25-0.29-0.33
		c-0.15-0.1-0.31-0.14-0.49-0.14c-0.49,0-0.85,0.31-0.85,0.78c0,0.23,0.08,0.37,0.21,0.49c0.14,0.13,0.28,0.2,0.4,0.25l0.27,0.13
		c0.16,0.08,0.28,0.13,0.36,0.21c0.11,0.1,0.15,0.22,0.15,0.36c0,0.31-0.2,0.6-0.61,0.6c-0.16,0-0.3-0.03-0.43-0.17
		c-0.09-0.09-0.16-0.23-0.18-0.38l-0.33,0.09c0.04,0.18,0.13,0.39,0.28,0.54c0.22,0.2,0.46,0.24,0.66,0.24
		c0.54,0,0.95-0.37,0.95-0.93c0-0.22-0.06-0.39-0.22-0.55c-0.13-0.13-0.29-0.21-0.47-0.29l-0.29-0.13c-0.11-0.05-0.23-0.1-0.32-0.19
		c-0.08-0.08-0.11-0.15-0.11-0.26c0-0.29,0.2-0.47,0.51-0.47c0.18,0,0.29,0.05,0.34,0.1c0.07,0.05,0.14,0.14,0.17,0.22L130.75,36.14
		z M133.53,35.72v3.03h0.34v-3.03H133.53z M137.03,38.75v-2.34l2.36,2.48v-3.17h-0.33v2.35l-2.36-2.47v3.16H137.03z M143.78,35.72
		h-1.57v3.03h1.57v-0.32h-1.23v-1.18h1.2v-0.31h-1.2v-0.9h1.23V35.72z M148.07,36.14c-0.06-0.13-0.17-0.25-0.29-0.33
		c-0.15-0.1-0.3-0.14-0.49-0.14c-0.49,0-0.85,0.31-0.85,0.78c0,0.23,0.08,0.37,0.21,0.49c0.14,0.13,0.29,0.2,0.4,0.25l0.27,0.13
		c0.16,0.08,0.28,0.13,0.37,0.21c0.1,0.1,0.15,0.22,0.15,0.36c0,0.31-0.19,0.6-0.61,0.6c-0.16,0-0.31-0.03-0.44-0.17
		c-0.08-0.09-0.16-0.23-0.18-0.38l-0.33,0.09c0.04,0.18,0.13,0.39,0.28,0.54c0.22,0.2,0.46,0.24,0.66,0.24
		c0.54,0,0.96-0.37,0.96-0.93c0-0.22-0.06-0.39-0.22-0.55c-0.13-0.13-0.29-0.21-0.47-0.29l-0.29-0.13c-0.11-0.05-0.22-0.1-0.31-0.19
		c-0.09-0.08-0.12-0.15-0.12-0.26c0-0.29,0.21-0.47,0.52-0.47c0.17,0,0.28,0.05,0.33,0.1c0.07,0.05,0.14,0.14,0.18,0.22
		L148.07,36.14z M152.47,36.14c-0.06-0.13-0.17-0.25-0.29-0.33c-0.15-0.1-0.3-0.14-0.49-0.14c-0.49,0-0.85,0.31-0.85,0.78
		c0,0.23,0.08,0.37,0.21,0.49c0.15,0.13,0.29,0.2,0.4,0.25l0.28,0.13c0.15,0.08,0.27,0.13,0.36,0.21c0.1,0.1,0.15,0.22,0.15,0.36
		c0,0.31-0.19,0.6-0.61,0.6c-0.16,0-0.31-0.03-0.44-0.17c-0.08-0.09-0.16-0.23-0.18-0.38l-0.33,0.09c0.04,0.18,0.13,0.39,0.29,0.54
		c0.21,0.2,0.45,0.24,0.65,0.24c0.54,0,0.96-0.37,0.96-0.93c0-0.22-0.06-0.39-0.22-0.55c-0.13-0.13-0.29-0.21-0.47-0.29l-0.29-0.13
		c-0.12-0.05-0.23-0.1-0.32-0.19c-0.08-0.08-0.11-0.15-0.11-0.26c0-0.29,0.2-0.47,0.51-0.47c0.17,0,0.28,0.05,0.34,0.1
		c0.06,0.05,0.13,0.14,0.17,0.22L152.47,36.14z M160.67,35.97c-0.37-0.28-0.72-0.3-0.9-0.3c-0.91,0-1.58,0.67-1.58,1.57
		c0,0.88,0.67,1.56,1.57,1.56c0.23,0,0.57-0.06,0.91-0.3v-0.42c-0.06,0.06-0.17,0.17-0.36,0.26c-0.15,0.08-0.36,0.14-0.56,0.14
		c-0.56,0-1.23-0.41-1.23-1.23c0-0.7,0.52-1.26,1.22-1.26c0.17,0,0.36,0.04,0.52,0.12c0.16,0.07,0.3,0.18,0.4,0.28V35.97z
		 M164.74,38.8c0.88,0,1.58-0.67,1.58-1.57c0-0.91-0.7-1.57-1.58-1.57c-0.87,0-1.57,0.66-1.57,1.57
		C163.16,38.14,163.87,38.8,164.74,38.8z M164.74,35.99c0.68,0,1.23,0.55,1.23,1.25s-0.55,1.25-1.23,1.25
		c-0.68,0-1.23-0.55-1.23-1.25S164.06,35.99,164.74,35.99z M170.6,36.14c-0.07-0.13-0.17-0.25-0.3-0.33
		c-0.15-0.1-0.3-0.14-0.49-0.14c-0.49,0-0.84,0.31-0.84,0.78c0,0.23,0.08,0.37,0.2,0.49c0.15,0.13,0.29,0.2,0.41,0.25l0.27,0.13
		c0.15,0.08,0.27,0.13,0.36,0.21c0.1,0.1,0.15,0.22,0.15,0.36c0,0.31-0.19,0.6-0.61,0.6c-0.16,0-0.31-0.03-0.44-0.17
		c-0.08-0.09-0.15-0.23-0.18-0.38l-0.33,0.09c0.04,0.18,0.13,0.39,0.29,0.54c0.21,0.2,0.46,0.24,0.65,0.24
		c0.55,0,0.96-0.37,0.96-0.93c0-0.22-0.06-0.39-0.22-0.55c-0.13-0.13-0.29-0.21-0.47-0.29l-0.29-0.13c-0.12-0.05-0.23-0.1-0.32-0.19
		c-0.08-0.08-0.11-0.15-0.11-0.26c0-0.29,0.2-0.47,0.51-0.47c0.17,0,0.28,0.05,0.34,0.1c0.06,0.05,0.13,0.14,0.17,0.22L170.6,36.14z
		 M173.62,38.75l0.3-2.11l1.02,2.24l1.03-2.24l0.29,2.11h0.34l-0.47-3.21l-1.18,2.56l-1.16-2.56l-0.5,3.2H173.62z M180.92,35.72
		h-1.57v3.03h1.57v-0.32h-1.24v-1.18h1.2v-0.31h-1.2v-0.9h1.24V35.72z M185.05,36.04v-0.32h-1.8v0.32h0.73v2.71h0.34v-2.71H185.05z
		 M188.97,38.8c0.87,0,1.57-0.67,1.57-1.57c0-0.91-0.7-1.57-1.57-1.57c-0.88,0-1.58,0.66-1.58,1.57
		C187.39,38.14,188.09,38.8,188.97,38.8z M188.97,35.99c0.68,0,1.23,0.55,1.23,1.25s-0.55,1.25-1.23,1.25
		c-0.68,0-1.23-0.55-1.23-1.25S188.29,35.99,188.97,35.99z M193.21,35.72v3.03h1.17v-0.32h-0.84v-2.71H193.21z M198.29,38.8
		c0.87,0,1.57-0.67,1.57-1.57c0-0.91-0.7-1.57-1.57-1.57c-0.88,0-1.58,0.66-1.58,1.57C196.71,38.14,197.42,38.8,198.29,38.8z
		 M198.29,35.99c0.68,0,1.23,0.55,1.23,1.25s-0.55,1.25-1.23,1.25c-0.68,0-1.23-0.55-1.23-1.25S197.61,35.99,198.29,35.99z
		 M204.09,37.54h0.9c-0.01,0.2-0.07,0.33-0.12,0.43c-0.18,0.31-0.52,0.51-0.93,0.51c-0.58,0-1.23-0.42-1.23-1.24
		c0-0.71,0.51-1.25,1.24-1.25c0.36,0,0.59,0.13,0.74,0.25c0.1,0.08,0.2,0.19,0.29,0.31l0.24-0.23c-0.08-0.12-0.21-0.25-0.35-0.36
		c-0.29-0.23-0.63-0.3-0.93-0.3c-0.9,0-1.58,0.68-1.58,1.57s0.68,1.57,1.57,1.57c0.7,0,1.03-0.43,1.13-0.54
		c0.2-0.26,0.29-0.62,0.29-0.96v-0.07h-1.26V37.54z M208.66,38.75H209v-1.3l1-1.73h-0.39l-0.78,1.35l-0.77-1.35h-0.39l0.99,1.73
		V38.75z"/>
	<path class="st0" d="M3.45,5.04C3.4,5.19,3.23,5.27,3.08,5.22S2.84,5,2.9,4.85c2-5.8,5.83-5.09,9.64-4.38
		c2.92,0.54,6.71,0.54,9.62,0c3.15-0.58,6.3-1.17,8.43,1.9c0.92,1.33,1.25,2.07,1.18,3.64l-0.26,5.77c0.12-0.06,0.26-0.15,0.4-0.25
		c0.51-0.35,1.04-0.71,1.72-0.19c0.06,0.07,0.1,0.12,0.11,0.23c0.01,1.39-0.41,3.48-0.95,5.27c-0.58,1.91-1.32,3.51-1.87,3.63
		l-0.01,0c-0.17,0.03-0.32,0.15-0.44,0.29c-0.19,0.22-0.29,0.48-0.3,0.61c-0.47,5.34-1.37,6.45-2.57,7.95
		c-0.35,0.43-0.72,0.9-1.12,1.52l-0.01,0.01l-0.01,0.01c-0.24,0.3-0.52,0.68-0.83,1.09c-1.13,1.51-2.65,3.52-3.79,4.12
		c-1.32,0.69-2.9,1.03-4.47,1.03s-3.15-0.34-4.47-1.03c-1.14-0.6-2.66-2.61-3.79-4.12c-0.31-0.41-0.59-0.79-0.83-1.09
		c-0.1-0.13-0.08-0.31,0.04-0.41c0.13-0.1,0.31-0.08,0.41,0.04c0.23,0.29,0.52,0.68,0.85,1.1c1.1,1.46,2.57,3.41,3.59,3.95
		c1.23,0.64,2.72,0.97,4.2,0.97s2.97-0.32,4.2-0.97c1.03-0.54,2.49-2.49,3.59-3.95c0.32-0.42,0.6-0.8,0.83-1.09
		c0.41-0.64,0.79-1.11,1.15-1.56c1.14-1.41,1.98-2.46,2.44-7.63c0.02-0.22,0.17-0.62,0.44-0.94c0.19-0.23,0.45-0.42,0.77-0.48l0,0
		c0.33-0.08,0.92-1.5,1.44-3.23c0.51-1.68,0.91-3.62,0.93-4.94c-0.3-0.14-0.62,0.07-0.91,0.28c-0.34,0.24-0.68,0.46-1.09,0.39
		c-0.14-0.09-0.22-0.25-0.24-0.37l0.27-6.15c0.06-1.32-0.36-2.19-1.15-3.26c-1.97-2.66-4.88-2.12-7.77-1.58
		c-3.35,0.62-6.48,0.62-9.83,0C8.86,0.38,5.28-0.29,3.45,5.04L3.45,5.04z M1.99,22.09l1.86,0.01c0.1,0,0.18,0.08,0.18,0.18
		c0,0.1-0.08,0.18-0.18,0.18l-1.86-0.01v1.26l1.88,0.01c0.1,0,0.18,0.08,0.18,0.18c0,0.1-0.08,0.18-0.18,0.18l-1.88-0.01v1.11
		l1.84,0.01c0.1,0,0.18,0.08,0.18,0.18c0,0.1-0.08,0.18-0.18,0.18l-1.84-0.01v1.26l1.86,0.01c0.1,0,0.18,0.08,0.18,0.18
		c0,0.1-0.08,0.18-0.18,0.18l-1.86-0.01v1.19l1.9,0.01c0.1,0,0.18,0.08,0.18,0.18c0,0.1-0.08,0.18-0.18,0.18l-1.89-0.01v1.16
		l1.81,0.01c0.1,0,0.18,0.08,0.18,0.18c0,0.1-0.08,0.18-0.18,0.18l-1.81-0.01v1.26l1.83,0.01c0.1,0,0.18,0.08,0.18,0.18
		c0,0.1-0.08,0.18-0.18,0.18l-1.83-0.01v1.19l1.87,0.01c0.1,0,0.18,0.08,0.18,0.18c0,0.1-0.08,0.18-0.18,0.18l-1.86-0.01v0.96
		l3.31-0.02V21.16c0-0.68-0.16-1.12-0.44-1.39c-0.28-0.27-0.7-0.38-1.22-0.39c-0.52,0.01-0.94,0.13-1.22,0.39
		c-0.28,0.27-0.44,0.71-0.44,1.39L1.99,22.09L1.99,22.09z M1.33,37.53h0.87v-2.54l-1.9,0.01C0.13,34.99,0,34.86,0,34.7
		s0.13-0.29,0.29-0.29L1.4,34.4V21.16c0-0.85,0.22-1.43,0.62-1.81c0.19-0.19,0.43-0.32,0.69-0.41v-1.63c0-0.16,0.13-0.29,0.29-0.29
		h0.31v-6.2c0-0.02,0-0.04,0.01-0.06l0.47-1.23C3.81,9.46,3.9,9.42,3.97,9.45c0.06,0.02,0.09,0.08,0.09,0.14l0,0v7.43h0.28
		c0.16,0,0.29,0.13,0.29,0.29v1.66c0.23,0.09,0.44,0.21,0.62,0.38c0.4,0.38,0.62,0.96,0.62,1.81v13.21l1.11-0.01
		c0.16,0,0.29,0.13,0.29,0.29c0,0.16-0.13,0.29-0.29,0.29l-1.93,0.01v2.56h0.75c0.16,0,0.29,0.13,0.29,0.29v0.77
		c0,0.16-0.13,0.29-0.29,0.29H1.33c-0.16,0-0.29-0.13-0.29-0.29v-0.77C1.03,37.66,1.16,37.53,1.33,37.53L1.33,37.53z M5.52,38.11
		H1.62v0.19h3.91V38.11z M4.48,35.52h-1.7v1.89h1.7V35.52z M3.78,17.02v-6.64L3.6,10.85v6.17H3.78z M4.05,17.61H3.29v1.12h0.76
		V17.61z M15.16,11.17c0.19,0.15,0.22,0.42,0.08,0.61s-0.42,0.22-0.61,0.08c-0.99-0.77-2.14-1.52-3.47-1.86
		C9.84,9.68,8.33,9.74,6.6,10.59c-0.22,0.11-0.48,0.02-0.58-0.2S6,9.92,6.21,9.81c1.95-0.96,3.65-1.03,5.15-0.65
		C12.84,9.53,14.09,10.34,15.16,11.17L15.16,11.17z M21.06,11.82c-0.19,0.15-0.47,0.11-0.61-0.08s-0.11-0.47,0.08-0.61
		c1.07-0.83,2.32-1.64,3.79-2.02c1.49-0.38,3.2-0.3,5.15,0.65c0.22,0.11,0.31,0.37,0.2,0.58s-0.37,0.31-0.58,0.2
		c-1.73-0.85-3.24-0.92-4.55-0.59C23.2,10.3,22.05,11.05,21.06,11.82L21.06,11.82z M14.17,29.14c-0.21-0.12-0.28-0.39-0.16-0.6
		s0.39-0.28,0.6-0.16c1,0.59,1.9,1.1,2.85,1.21c0.93,0.11,1.95-0.17,3.23-1.15c0.19-0.15,0.47-0.11,0.61,0.08
		c0.15,0.19,0.11,0.47-0.08,0.61c-1.49,1.13-2.71,1.45-3.86,1.32C16.25,30.33,15.26,29.78,14.17,29.14L14.17,29.14z M22.14,26.84
		c0.21,0.12,0.28,0.39,0.16,0.6c-0.12,0.21-0.39,0.28-0.6,0.16c-0.12-0.07-0.24-0.15-0.37-0.23c-0.79-0.5-1.75-1.1-3.47-0.12
		c-0.14,0.08-0.3,0.07-0.43,0c-1.63-0.92-2.64-0.29-3.44,0.21c-0.13,0.08-0.26,0.16-0.38,0.23c-0.21,0.12-0.48,0.05-0.6-0.16
		s-0.05-0.48,0.16-0.6c0.12-0.07,0.23-0.14,0.35-0.22c0.97-0.61,2.17-1.36,4.13-0.35c2.04-1.07,3.19-0.34,4.15,0.26
		C21.91,26.71,22.02,26.78,22.14,26.84L22.14,26.84z M16.81,22.65c0.23,0.08,0.34,0.33,0.26,0.56c-0.08,0.23-0.33,0.34-0.56,0.26
		c-0.26-0.1-0.46-0.23-0.66-0.36c-0.28-0.19-0.57-0.38-1.05-0.31c-0.24,0.03-0.46-0.13-0.49-0.37c-0.03-0.24,0.13-0.46,0.37-0.49
		c0.81-0.11,1.23,0.17,1.65,0.45C16.49,22.49,16.65,22.59,16.81,22.65L16.81,22.65z M18.41,23.37c-0.23,0.08-0.48-0.04-0.56-0.26
		c-0.08-0.23,0.04-0.48,0.26-0.56c0.16-0.06,0.32-0.16,0.47-0.27c0.42-0.28,0.84-0.57,1.65-0.45c0.24,0.03,0.41,0.25,0.37,0.49
		c-0.03,0.24-0.25,0.41-0.49,0.37c-0.48-0.07-0.76,0.12-1.05,0.31C18.87,23.14,18.67,23.27,18.41,23.37L18.41,23.37z M6.92,15.46
		c-0.11-0.06-0.17-0.15-0.18-0.27c-0.02-0.13,0.03-0.27,0.12-0.42c0.07-0.13,0.18-0.27,0.29-0.4c0.31-0.36,0.73-0.67,0.83-0.66
		c0.15,0.02,0.32,0.1,0.53,0.21c0.43,0.22,1.09,0.55,2.08,0.55c1.08,0,2.24-0.15,3.04-0.25c0.58-0.07,0.99-0.13,1.1-0.06
		s0.15,0.15,0.08,0.27c-0.01,0.01-0.01,0.02-0.01,0.02c-0.42,0.75-2.09,1.16-3.81,1.3c-1.69,0.14-3.45,0.03-4.05-0.29
		C6.93,15.46,6.92,15.46,6.92,15.46L6.92,15.46z M28.9,15.1c-0.01,0.11-0.07,0.2-0.18,0.27c0,0-0.01,0.01-0.02,0.01
		c-0.6,0.32-2.36,0.43-4.05,0.29c-1.71-0.14-3.39-0.56-3.81-1.3c0,0-0.01-0.01-0.01-0.02c-0.06-0.12-0.03-0.21,0.08-0.27
		c0.12-0.06,0.52-0.01,1.1,0.06c0.8,0.1,1.96,0.25,3.04,0.25c1,0,1.65-0.33,2.08-0.55c0.21-0.11,0.38-0.19,0.53-0.21
		c0.1-0.01,0.52,0.3,0.83,0.66c0.11,0.13,0.21,0.27,0.29,0.4C28.87,14.83,28.92,14.98,28.9,15.1L28.9,15.1z"/>
</g>
</svg>
